<svg viewBox="0 0 141.94 140.56" xmlns:xlink="http://www.w3.org/1999/xlink" xmlns="http://www.w3.org/2000/svg" id="_图层_2">
  <defs>
    <style>
      .cls-1 {
        fill: url(#_未命名的渐变_8);
      }

      .cls-2 {
        fill: url(#_未命名的渐变_7);
      }

      .cls-3 {
        fill: url(#_未命名的渐变_16-2);
      }

      .cls-4 {
        fill: url(#_未命名的渐变_16-3);
      }

      .cls-5 {
        fill: #fff;
      }

      .cls-6 {
        fill: url(#_未命名的渐变_15);
      }

      .cls-7 {
        fill: url(#_未命名的渐变_16);
      }
    </style>
    <linearGradient gradientUnits="userSpaceOnUse" y2="11.71" x2="114.45" y1="52.71" x1="43.44" id="_未命名的渐变_16">
      <stop stop-opacity=".5" stop-color="#615ced" offset="0"></stop>
      <stop stop-opacity=".53" stop-color="#6964ed" offset="0"></stop>
      <stop stop-opacity=".62" stop-color="#8884f1" offset=".01"></stop>
      <stop stop-opacity=".72" stop-color="#a4a2f4" offset=".03"></stop>
      <stop stop-opacity=".79" stop-color="#bdbbf7" offset=".04"></stop>
      <stop stop-opacity=".86" stop-color="#d2d0f9" offset=".06"></stop>
      <stop stop-opacity=".91" stop-color="#e2e1fb" offset=".07"></stop>
      <stop stop-opacity=".95" stop-color="#efeffd" offset=".09"></stop>
      <stop stop-opacity=".98" stop-color="#f8f8fe" offset=".12"></stop>
      <stop stop-opacity="1" stop-color="#fdfdfe" offset=".15"></stop>
      <stop stop-color="#fff" offset=".25"></stop>
    </linearGradient>
    <linearGradient xlink:href="#_未命名的渐变_16" gradientTransform="translate(-5601.98 -10680.65) rotate(-120)" y2="-521.12" x2="-12103.58" y1="-480.12" x1="-12174.59" id="_未命名的渐变_16-2"></linearGradient>
    <linearGradient xlink:href="#_未命名的渐变_16" gradientTransform="translate(-12050.7 -488.87) rotate(120)" y2="-10835.82" x2="-5533.12" y1="-10794.82" x1="-5604.13" id="_未命名的渐变_16-3"></linearGradient>
    <linearGradient gradientUnits="userSpaceOnUse" y2="105.42" x2="10.11" y1="35.14" x1="131.83" id="_未命名的渐变_15">
      <stop stop-color="#615ced" offset="0"></stop>
      <stop stop-color="#6156ec" offset=".17"></stop>
      <stop stop-color="#6147e9" offset=".38"></stop>
      <stop stop-color="#622fe4" offset=".61"></stop>
      <stop stop-color="#632de4" offset=".62"></stop>
    </linearGradient>
    <linearGradient gradientUnits="userSpaceOnUse" y2="70.28" x2="141.94" y1="70.28" x1="0" id="_未命名的渐变_8">
      <stop stop-color="#615ced" offset="0"></stop>
      <stop stop-opacity=".96" stop-color="#615ced" offset=".04"></stop>
      <stop stop-opacity=".86" stop-color="#615ced" offset=".09"></stop>
      <stop stop-opacity=".69" stop-color="#615ced" offset=".17"></stop>
      <stop stop-opacity=".46" stop-color="#615ced" offset=".25"></stop>
      <stop stop-opacity=".16" stop-color="#615ced" offset=".35"></stop>
      <stop stop-opacity="0" stop-color="#615ced" offset=".4"></stop>
    </linearGradient>
    <linearGradient gradientUnits="userSpaceOnUse" y2="131.74" x2="35.49" y1="8.81" x1="106.46" id="_未命名的渐变_7">
      <stop stop-color="#a7a5f6" offset="0"></stop>
      <stop stop-opacity=".79" stop-color="#9895f4" offset=".05"></stop>
      <stop stop-opacity=".55" stop-color="#8784f1" offset=".12"></stop>
      <stop stop-opacity=".35" stop-color="#7975f0" offset=".19"></stop>
      <stop stop-opacity=".2" stop-color="#6f6aee" offset=".25"></stop>
      <stop stop-opacity=".09" stop-color="#6762ed" offset=".31"></stop>
      <stop stop-opacity=".02" stop-color="#625ded" offset=".36"></stop>
      <stop stop-opacity="0" stop-color="#615ced" offset=".4"></stop>
    </linearGradient>
  </defs>
  <g id="_图层_1-2">
    <g>
      <path d="M70.97,139.89c-.95,0-1.84-.51-2.32-1.34l-.19-.34h0l-8.7-15.06H22.67c-.47,0-.93-.12-1.34-.36-.41-.24-.75-.58-.98-.98l-9.66-16.73c-.24-.41-.36-.87-.36-1.34s.12-.93.36-1.34l8.89-15.39L1.03,54.88c-.23-.41-.36-.87-.36-1.34s.12-.93.36-1.34l9.66-16.73c.23-.4.57-.74.98-.98.4-.24.87-.36,1.34-.36h17.78L49.33,2.01c.24-.41.58-.74.98-.98.4-.24.87-.36,1.34-.36h19.32c.95,0,1.84.51,2.32,1.34l8.89,15.4h37.1c.47,0,.93.12,1.34.36.41.24.75.57.98.98l9.66,16.73c.24.41.36.87.36,1.34s-.12.93-.36,1.34l-8.89,15.39,18.54,32.13c.24.4.36.87.36,1.34s-.12.93-.36,1.34l-9.66,16.74c-.23.4-.57.74-.98.98-.4.23-.87.36-1.34.36h-17.77l-18.55,32.13c-.23.4-.57.74-.98.98-.41.23-.87.36-1.34.36h-19.32Z" class="cls-5"></path>
      <g>
        <polygon points="51.65 3.35 61.31 20.08 51.65 36.81 128.94 36.81 119.28 53.54 43.92 53.54 33.29 35.14 51.65 3.35" class="cls-7"></polygon>
        <polygon points="22.67 120.48 32.33 103.75 51.65 103.75 13.01 36.81 32.32 36.81 70 102.07 59.38 120.49 22.67 120.48" class="cls-3"></polygon>
        <polygon points="138.6 87.01 119.27 87.01 109.62 70.28 70.97 137.21 61.31 120.49 98.99 55.23 120.25 55.22 138.6 87.01" class="cls-4"></polygon>
      </g>
      <path d="M141.49,85.34l-16.42-28.44-1.93-3.35,8.69-15.05c.3-.52.45-1.1.45-1.67s-.15-1.16-.45-1.67l-9.66-16.73c-.3-.52-.72-.93-1.22-1.22-.5-.29-1.08-.45-1.67-.45h-36.71l-8.7-15.06c-.6-1.03-1.7-1.67-2.9-1.67h-19.32c-.6,0-1.17.16-1.67.45-.5.29-.93.71-1.23,1.22l-16.42,28.45-1.93,3.34H13.01c-.6,0-1.17.16-1.67.45-.5.29-.93.71-1.23,1.22L.45,51.87c-.3.52-.45,1.1-.45,1.67s.15,1.16.45,1.67l18.36,31.79-8.7,15.06c-.3.52-.45,1.1-.45,1.67s.15,1.16.45,1.67l9.66,16.73c.3.52.73.93,1.22,1.22.5.29,1.08.45,1.67.45h36.71l8.7,15.06h0c.6,1.03,1.7,1.67,2.9,1.67h19.32c.6,0,1.17-.16,1.67-.45.5-.29.93-.71,1.22-1.22l18.36-31.79h17.39c.6,0,1.17-.16,1.67-.45.5-.29.93-.71,1.22-1.22l9.66-16.73c.3-.52.45-1.1.45-1.67s-.15-1.16-.45-1.67ZM51.65,3.35l9.66,16.74-9.66,16.73h77.29l-9.66,16.73H43.92s-10.63-18.41-10.63-18.41L51.65,3.35ZM59.38,120.49H22.67s9.66-16.75,9.66-16.75h19.32S13.01,36.81,13.01,36.81h19.32l9.66,16.73,28.01,48.53-10.62,18.41ZM119.27,87.01l-9.66-16.73-38.64,66.93-9.66-16.73,9.67-16.73,28.02-48.52h21.26s18.35,31.78,18.35,31.78h-19.33Z" class="cls-6"></path>
      <path d="M141.49,85.34l-16.42-28.44-1.93-3.35,8.69-15.05c.3-.52.45-1.1.45-1.67s-.15-1.16-.45-1.67l-9.66-16.73c-.3-.52-.72-.93-1.22-1.22-.5-.29-1.08-.45-1.67-.45h-36.71l-8.7-15.06c-.6-1.03-1.7-1.67-2.9-1.67h-19.32c-.6,0-1.17.16-1.67.45-.5.29-.93.71-1.23,1.22l-16.42,28.45-1.93,3.34H13.01c-.6,0-1.17.16-1.67.45-.5.29-.93.71-1.23,1.22L.45,51.87c-.3.52-.45,1.1-.45,1.67s.15,1.16.45,1.67l18.36,31.79-8.7,15.06c-.3.52-.45,1.1-.45,1.67s.15,1.16.45,1.67l9.66,16.73c.3.52.73.93,1.22,1.22.5.29,1.08.45,1.67.45h36.71l8.7,15.06h0c.6,1.03,1.7,1.67,2.9,1.67h19.32c.6,0,1.17-.16,1.67-.45.5-.29.93-.71,1.22-1.22l18.36-31.79h17.39c.6,0,1.17-.16,1.67-.45.5-.29.93-.71,1.22-1.22l9.66-16.73c.3-.52.45-1.1.45-1.67s-.15-1.16-.45-1.67ZM51.65,3.35l9.66,16.74-9.66,16.73h77.29l-9.66,16.73H43.92s-10.63-18.41-10.63-18.41L51.65,3.35ZM59.38,120.49H22.67s9.66-16.75,9.66-16.75h19.32S13.01,36.81,13.01,36.81h19.32l9.66,16.73,28.01,48.53-10.62,18.41ZM119.27,87.01l-9.66-16.73-38.64,66.93-9.66-16.73,9.67-16.73,28.02-48.52h21.26s18.35,31.78,18.35,31.78h-19.33Z" class="cls-1"></path>
      <path d="M141.49,85.34l-16.42-28.44-1.93-3.35,8.69-15.05c.3-.52.45-1.1.45-1.67s-.15-1.16-.45-1.67l-9.66-16.73c-.3-.52-.72-.93-1.22-1.22-.5-.29-1.08-.45-1.67-.45h-36.71l-8.7-15.06c-.6-1.03-1.7-1.67-2.9-1.67h-19.32c-.6,0-1.17.16-1.67.45-.5.29-.93.71-1.23,1.22l-16.42,28.45-1.93,3.34H13.01c-.6,0-1.17.16-1.67.45-.5.29-.93.71-1.23,1.22L.45,51.87c-.3.52-.45,1.1-.45,1.67s.15,1.16.45,1.67l18.36,31.79-8.7,15.06c-.3.52-.45,1.1-.45,1.67s.15,1.16.45,1.67l9.66,16.73c.3.52.73.93,1.22,1.22.5.29,1.08.45,1.67.45h36.71l8.7,15.06h0c.6,1.03,1.7,1.67,2.9,1.67h19.32c.6,0,1.17-.16,1.67-.45.5-.29.93-.71,1.22-1.22l18.36-31.79h17.39c.6,0,1.17-.16,1.67-.45.5-.29.93-.71,1.22-1.22l9.66-16.73c.3-.52.45-1.1.45-1.67s-.15-1.16-.45-1.67ZM51.65,3.35l9.66,16.74-9.66,16.73h77.29l-9.66,16.73H43.92s-10.63-18.41-10.63-18.41L51.65,3.35ZM59.38,120.49H22.67s9.66-16.75,9.66-16.75h19.32S13.01,36.81,13.01,36.81h19.32l9.66,16.73,28.01,48.53-10.62,18.41ZM119.27,87.01l-9.66-16.73-38.64,66.93-9.66-16.73,9.67-16.73,28.02-48.52h21.26s18.35,31.78,18.35,31.78h-19.33Z" class="cls-2"></path>
    </g>
  </g>
</svg>